<svg xmlns="http://www.w3.org/2000/svg"><style>:root svg:not(:target){display:none}</style><svg viewBox="0 0 30 32" fill="none" id="first"><g clip-path="url(#first_0)"><path d="M27.78 2.77a.95.95 0 0 0-.92-.77c-4.94.03-16.95.92-21.8 8.38-2.51 3.88-2.73 8.91-.64 14.96l.07.13a25.93 25.93 0 0 0-1.04 3.32 1 1 0 0 0 .72 1.19l.2.02c.43 0 .82-.32.91-.79.02-.1 2.4-10.37 10.85-16.38.44-.3.55-.93.26-1.38a.9.9 0 0 0-1.3-.28c-4.78 3.4-7.73 8-9.47 11.65-1.24-4.57-.91-8.37.99-11.3 3.74-5.76 12.62-7.15 17.98-7.45-1.15 1.8-2.41 5.1-2.41 10.93 0 3.12-.83 5.52-2.47 7.14-2.62 2.6-6.88 2.83-10 2.58-.5-.04-.96.38-1 .93a.98.98 0 0 0 .87 1.07c.62.05 1.28.08 1.98.08 3.17 0 6.87-.66 9.43-3.2 2.03-2 3.06-4.9 3.06-8.6 0-9.1 3.22-11.1 3.23-11.1.4-.21.6-.68.5-1.13Z" fill="#fff"></path></g><defs><clipPath id="first_0"><path fill="#fff" d="M0 0h30v32h-30z"></path></clipPath></defs></svg><svg viewBox="0 0 26 31" fill="none" id="fourth"><path d="M5.54 0c-1.06 0-1.06 1.58 0 1.58h6.64v1.6c-6.8.44-12.18 6.23-12.18 13.3 0 4.02 1.74 7.64 4.5 10.07.47.43.54 1.18.1 1.64l-1.53 1.55c-.74.69.36 1.75 1.03 1l2-2.03c.35-.34.87-.43 1.3-.21a12.7 12.7 0 0 0 11.07.06c.43-.21.96-.13 1.3.21l1.94 1.97c.68.64 1.65-.31 1.04-1l-1.45-1.48c-.44-.45-.38-1.2.1-1.63a13.46 13.46 0 0 0 4.6-10.16c0-7.07-5.41-12.87-12.22-13.28v-1.6h6.64c1.06 0 1.06-1.59 0-1.59h-14.88Zm-4.1 16.47a11.7 11.7 0 0 1 11.56-11.82c6.38 0 11.55 5.3 11.55 11.82 0 6.55-5.17 11.85-11.55 11.85-6.38 0-11.57-5.3-11.57-11.85Zm10.75-8.09c0-1.1 1.66-1.1 1.66 0v8.63a.84.84 0 0 1-.85.85.81.81 0 0 1-.8-.8v-8.68Zm-4.97 2.62a1.16 1.16 0 0 0 1.16-1.15 1.15 1.15 0 0 0-1.16-1.15 1.16 1.16 0 0 0-1.05 1.14 1.15 1.15 0 0 0 1.05 1.15Zm11.55 0a1.16 1.16 0 0 0 1.16-1.15 1.15 1.15 0 0 0-1.16-1.15 1.16 1.16 0 0 0-1.05 1.14 1.15 1.15 0 0 0 1.05 1.15Zm-10.4 12.59c0 1.53-2.31 1.53-2.31 0s2.32-1.53 2.32 0Zm4.63 3.44a1.17 1.17 0 0 0 1.17-.68 1.14 1.14 0 0 0-.7-1.56 1.17 1.17 0 0 0-1.22.32 1.15 1.15 0 0 0 .75 1.92Zm-8.09-10.39a1.14 1.14 0 0 1-.68 1.17 1.17 1.17 0 0 1-1.57-.7 1.14 1.14 0 0 1 .32-1.2 1.16 1.16 0 0 1 1.93.73Zm17.33 1.15a1.16 1.16 0 0 0 1.17-.68 1.14 1.14 0 0 0-.7-1.55 1.17 1.17 0 0 0-1.22.32 1.15 1.15 0 0 0 .75 1.91Zm-2.31 5.8c0 1.53-2.32 1.53-2.32 0s2.32-1.53 2.32 0Z" fill="#fff"></path></svg><svg viewBox="0 0 101 19" fill="none" id="logo-cat-energy"><path d="M1.22 16.48a6.8 6.8 0 0 1-1.2-4.33v-6.27a6.9 6.9 0 0 1 1.18-4.38c.8-1 2.15-1.5 4.08-1.49 1.92 0 3.22.44 3.9 1.31a5.51 5.51 0 0 1 1.14 3.76v1.47h-3.55v-1.6c0-.42-.04-.84-.11-1.25a1.4 1.4 0 0 0-.4-.8 1.35 1.35 0 0 0-1-.3c-.25-.04-.5 0-.74.1-.23.12-.42.3-.54.52a4.46 4.46 0 0 0-.3 1.84v7.95a3.9 3.9 0 0 0 .34 1.84c.13.21.31.38.53.49.22.1.47.15.72.12.24.04.48 0 .7-.12.22-.1.39-.28.5-.5.2-.58.3-1.2.26-1.83v-1.67h3.55v1.45a5.94 5.94 0 0 1-1.05 3.85c-.76.92-2.06 1.37-3.91 1.37s-3.3-.5-4.1-1.53Zm13.94-16.23h4.06l3.43 17.55h-3.38l-.6-3.87h-2.85l-.69 3.85h-3.43l3.46-17.53Zm3.13 11.47-1.08-7.05-1.08 7.05h2.16Zm6.99-8.82h-2.77v-2.65h9.19v2.64h-2.74v14.89h-3.68v-14.89Z" fill="#111"></path><path d="M38.91.25h6.98v1.83h-4.46v5.79h3.62v1.73h-3.62v6.42h4.5v1.76h-7.02v-17.53Zm9.04 0h1.72l5.14 11.64v-11.64h2.1v17.55h-1.6l-5.15-11.96v11.94h-2.13l-.08-17.53Zm11.73 0h6.96v1.83h-4.46v5.79h3.66v1.73h-3.62v6.42h4.47v1.76h-7.01v-17.53Zm9.02 0h3.63a6.12 6.12 0 0 1 4 1.1c.86.73 1.28 1.91 1.28 3.56 0 2.23-.74 3.59-2.22 4.08l2.57 8.79h-2.43l-2.36-8.23h-1.95v8.23h-2.51v-17.53Zm3.44 7.52c.83.08 1.65-.14 2.32-.63a2.96 2.96 0 0 0 .7-2.26 4.77 4.77 0 0 0-.25-1.68 1.57 1.57 0 0 0-.86-.9 4.18 4.18 0 0 0-1.76-.3h-1.1v5.8l.95-.03Zm8.86 8.71a7.57 7.57 0 0 1-1.1-4.47v-5.85a11 11 0 0 1 .43-3.34c.25-.82.77-1.53 1.5-2.01a5.05 5.05 0 0 1 2.87-.7 4.62 4.62 0 0 1 3.59 1.23 5.74 5.74 0 0 1 1.1 3.87v.65h-2.36v-.54c.01-.65-.04-1.3-.16-1.94a1.67 1.67 0 0 0-.65-1.03 2.63 2.63 0 0 0-1.47-.34 2.2 2.2 0 0 0-1.56.47 2.2 2.2 0 0 0-.66 1.23c-.1.7-.15 1.39-.14 2.08v6.51c-.07 1 .1 1.98.5 2.9a2.42 2.42 0 0 0 1.94.87 2.48 2.48 0 0 0 1.9-.95c.41-.96.6-2 .52-3.05v-1.24h-2.28v-1.73h4.55v8.68h-1.56l-.25-2.02c-.2.67-.61 1.26-1.2 1.66-.58.4-1.28.6-2 .57a4.1 4.1 0 0 1-3.52-1.5Zm13.73-4.88-3.88-11.35h2.33l2.75 8.46 2.71-8.46h2.36l-3.86 11.34v6.19h-2.4v-6.19Z" fill="#444"></path></svg><svg viewBox="0 0 60 50" fill="none" id="logo-header-energy"><path d="M51.2 19.05a22.3 22.3 0 0 0-6.88-9.13 21.5 21.5 0 0 0-21.62-2.95 21.95 21.95 0 0 0-9 6.97 22.76 22.76 0 0 0-3.04 22.04 22.31 22.31 0 0 0 6.78 9.22c3 2.42 6.57 4 10.36 4.56-.5-1.82-1-3.84-1.44-5.98 1.29.86 2.65 1.6 4.07 2.23 0 0 .1 1.88.24 3.99a21.7 21.7 0 0 0 4.55-.41 1.9 1.9 0 0 1 0-.67c.25-1.63.94-4.57 1.07-6.46.99-.94 1.83-2.03 2.48-3.24l-.05.39c-.47 3.71-1.45 7.68-2.05 8.78-.2.37-.43.7-.71 1 3.1-.74 6-2.16 8.5-4.15 2.5-2 4.55-4.53 6-7.42a22.73 22.73 0 0 0 .75-18.77Zm-1.25 3.3c-.38.38-1.15.64-1.28-.5a30.8 30.8 0 0 1-.16-1.93s-1.65-2.99-2.27-3.02c-.62-.04-4.99 3.02-6.14 4.36-1 1.12-1.2 1.05-1.2 3.03 0 1.49.19 7.12.09 11.43l-6.97 1.9a53.8 53.8 0 0 1-6.67 1.5l-.86-5.09h-.12l-2.2-11.49s-3.25-1.26-4.45-1.6a3.16 3.16 0 0 0-3.42.55 4.42 4.42 0 0 0-1.48 3.36c.18.4.32.83.4 1.27.05.42-1.02.37-1.7.37-.69 0-.79-1.25-.25-2.73a19.9 19.9 0 0 1 1.56-3.26c.46-.93 1.06-1.78 1.77-2.52 0 0 .12-.3 1.07-.21.95.09 6.22.37 6.22.37l.05-1.98c5.73-.8 11.51-1.2 17.3-1.17v1.6a18.95 18.95 0 0 1 6.97-1.74.76.76 0 0 1 .65.34c.3.37 2.06 2.61 2.27 2.94.57.83 1.1 1.7 1.57 2.61a5.5 5.5 0 0 1-.75 1.6v.02Z" fill="#FDC305"></path><path d="m48.28 17.02.86 1.12c.57.84 1.1 1.72 1.56 2.62a5.5 5.5 0 0 1-.73 1.55c-.38.38-1.16.63-1.28-.5-.13-1.14-.18-1.89-.18-1.89s-1.65-2.99-2.27-3.02c-.62-.04-4.99 3.02-6.14 4.36-1 1.12-1.2 1.05-1.2 3.03 0 1.3.15 5.8.11 9.8 1.55.17 3.83.6 4.51 1.63 0 0-.25-6.26 6.68-2.98 0 0 .24-8.54 9.8-6.35a37.5 37.5 0 0 0-11.72-9.37Zm-9-2.02c.03-4.84-.37-9.67-1.2-14.43 0 0-.13-1.13-.74-.2-.51 1.1-.86 2.27-1.03 3.48a59.42 59.42 0 0 0-10.96.3c-.7-2.4-1.9-3.49-2.47-3.2-.58.29-.65 2.86-.65 2.86l-.28 12.35a121 121 0 0 1 17.33-1.17Z" fill="#F06351"></path><path d="M38.78 39.22c.11-.93.17-2.17.2-3.54l-6.96 1.9a53.8 53.8 0 0 1-6.67 1.54l.95 4.36c0 .1 0 .2.06.29 1.3.85 2.65 1.6 4.07 2.22 2.07-1 4.04-2.21 5.88-3.6v.05c.98-.94 1.82-2.02 2.47-3.22Z" fill="#E55645"></path><path d="M27.37 12.26c-.05-.08.85.6 1.2.8.35.22.52.37.52.52 0 .15-.22.3-.53.3-.3 0-.78-.1-.85-.23-.07-.12.51 0 .8 0h.25c-.53-.4-1-.86-1.4-1.39Zm6.41.1s-.86 1.12-.93 1.17c-.08.05-.15.3.16.25.35-.05.7-.13 1.04-.24.1-.06.06-.18-.1-.16-.16.02-.58.04-.85.1l.72-1.11s.03-.1-.04-.01Zm-2.68 5.33c.4-.18.72-.49.93-.87.24-.58 0-.8-.38-.88-.52-.1-1.05.01-1.5.3-.33.32-.29.64 0 .87.3.24.6.43.94.58Z" fill="#000"></path><path d="M30.79 18.79a1.46 1.46 0 0 1-1.25.86c-.47.04-.94-.1-1.32-.39a1.7 1.7 0 0 1-.45-.4.85.85 0 0 0-.31-.21s.64 3.59 2.2 4.16c1.55.58 1.84-.66 1.89-1 .05-.99-.2-1.97-.7-2.82 0-.26-.02-.09-.06-.2Z" fill="#F06351"></path><path d="M29.33 19.78a2.96 2.96 0 0 1-2-1.24.13.13 0 0 1 0-.18.12.12 0 0 1 .13-.03l.03.03a2.78 2.78 0 0 0 1.8 1.14 1.78 1.78 0 0 0 1.41-.87l.12-.16.09.19s.32.66.85.7c.53.03.9-.37 1.4-1.13a.12.12 0 0 1 .17-.03c.02.01.04.04.05.08 0 .03 0 .06-.02.09-.57.86-1.1 1.27-1.62 1.23a1.3 1.3 0 0 1-.95-.64 1.95 1.95 0 0 1-1.46.82Z" fill="#000"></path><path d="M31 31.53a3.25 3.25 0 0 0 3.22-3.27 3.25 3.25 0 0 0-3.21-3.28 3.24 3.24 0 0 0-3.2 3.28c0 1.8 1.43 3.27 3.2 3.27Z" fill="#FDC305"></path><path d="m35.26 25.6-2.68 1.14.99-4.91-6.42 8.51 2.68-1.14-.98 4.92 6.4-8.53Zm-6.32 3.34 3.56-4.72-.7 3.49 1.71-.72-3.58 4.73.7-3.5-1.7.72Zm-1.2-1.29c.53 0 .96-.43.96-.97a.97.97 0 0 0-.96-.98.97.97 0 0 0-.96.98c0 .54.43.97.96.97Zm5.58 3.55c.37 0 .67-.31.67-.7 0-.37-.3-.68-.67-.68-.38 0-.68.3-.68.69 0 .38.3.69.68.69Zm.82-1.9a.3.3 0 0 0 .3-.3.3.3 0 0 0-.3-.3.3.3 0 0 0-.3.3c0 .17.13.3.3.3Z" fill="#111"></path><path d="M39.24 16.57c-1.55 1.42-3 2.94-4.36 4.55a27.48 27.48 0 0 1-4.54 4.27c-.19-.46-1.4-1.32-1.4-1.32s-2.68-1.88-4.44-3.35a27.62 27.62 0 0 1-2.68-2.62l-1.71-.1a19.39 19.39 0 0 0 10.26 7.72c.73-.13 2.8-1.64 4.35-2.87a49.8 49.8 0 0 0 5.13-5.15c.43-.52.76-1.1.98-1.75-.98.34-1.6.62-1.6.62Zm-17.06 5.97s-3.26-1.26-4.46-1.6a3.16 3.16 0 0 0-3.42.55 4.42 4.42 0 0 0-1.48 3.36c.18.4.32.83.41 1.27.04.42-1.03.37-1.71.37-.68 0-.79-1.25-.25-2.73a19.9 19.9 0 0 1 1.56-3.26c-4.66 2.48-12.83 8.2-12.83 8.2a38.4 38.4 0 0 1 7 .21c4.5.46 4.28 4.07 4.28 4.07 1.58-.44 3.19-.76 4.81-.96 1.82-.13 1.95 1.85 1.95 1.85l.45 3.36c.69-.76 1.45-1.45 2.27-2.06a5.11 5.11 0 0 1 3.74-1.13l-2.32-11.5Z" fill="#F06351"></path></svg><svg viewBox="0 0 27 35" fill="none" id="logo-html"><g clip-path="url(#logo-html_0)"><path d="m13.64.52-.14-.02-13.5 1.4v24.61l13.5 7.99 13.5-7.99v-24.6l-13.36-1.4Zm11.6 25-11.74 6.94-11.73-6.94v-10.1l11.68 6.93.02 1.25-8.02-4.75v1.23l8.04 4.8.02 1.3-8.05-4.76v1.22l8.04 4.81 8.12-4.83v-5.21l3.62-2.15v10.26Zm0-11.57-3.23 1.88-1.48.88-7.06-4.19-.01 1.23 6.04 3.57-.06.03-.13.07-.86.5-4.98-2.95-.01 1.22 3.93 2.33-.93.61-.02.01-2.97-1.74-.01 1.23 1.94 1.13-1.98 1.19-11.62-6.87 11.63-6.96 11.8 6.83Zm0-1.22-11.8-6.92-11.67 6.91v-9.23l11.73-1.23 11.73 1.23v9.24Z" fill="#666"></path></g><defs><clipPath id="logo-html_0"><path fill="#fff" transform="translate(0 .5)" d="M0 0h27v34h-27z"></path></clipPath></defs></svg><svg viewBox="0 0 26 29" fill="none" id="second"><path d="M10.88 0c-1.64 0-2.9 1.36-2.9 3.08s1.26 3.08 2.9 3.08c1.63 0 2.9-1.36 2.9-3.08s-1.27-3.08-2.9-3.08Zm0 1.18c1 0 1.72.84 1.72 1.9 0 1-.8 1.9-1.72 1.9-1 0-1.73-.84-1.73-1.9 0-1 .78-1.9 1.72-1.9Zm-10.88 23.56c0 1.18.4 2.18 1.36 3 1 .84 2.17.77 2.17.77h19.04c.77 0 1.8-.38 2.62-1.45.85-1 .8-2.36.8-2.36v-17.21c0-.44-.12-.6-.75-.6-.64 0-.69.27-.69.59v17.22c-.02.3-.07 1.08-.74 1.72-.74.62-1.45.54-1.45.54s-18.13 0-19.03-.03a2.14 2.14 0 0 1-1.45-.9c-.51-.73-.41-1.63-.41-1.63v-17.22c0-.46-.24-.64-.73-.64s-.74.18-.74.58v17.62Zm16.31-16.31c-1.08.23-2.17.38-4.26 2.35-2.08 2-3.62 1.9-5.16 1.82-1.54-.1-3.17-1.54-3.45-1.9-.33-.36-.9-.12-1.08.11-.16.24-.16.64.1 1 1.27 1.18 2.45 2.08 4.72 2.26a7.5 7.5 0 0 0 5.89-2.26c1.45-1.45 2.17-1.72 3.26-1.9a6.3 6.3 0 0 1 5.08 1.26c1 1.1 1.26.78 1.54.48.54-.72-.23-1.27-1.1-1.9a7.24 7.24 0 0 0-5.52-1.28l-.02-.04Zm-9.06 7.16c-1.18 0-2.08 1-2.08 2.26 0 1.27.9 2.27 2.08 2.27 1.18 0 2.08-1 2.08-2.27s-.9-2.26-2.08-2.26Zm11.78.78c-1.54 0-2.8 1.36-2.8 2.99 0 1.63 1.26 2.99 2.8 2.99 1.54 0 2.81-1.36 2.81-3 0-1.62-1.27-2.98-2.8-2.98Zm0 1.45c.8 0 1.45.7 1.45 1.54a1.5 1.5 0 0 1-1.45 1.54c-.8 0-1.45-.7-1.45-1.54 0-.86.65-1.54 1.45-1.54Z" fill="#fff"></path></svg><svg viewBox="0 0 25 30" fill="none" id="third"><path fill-rule="evenodd" clip-rule="evenodd" d="M18.62.08a1 1 0 0 1 1.09.21c.9.91 2.1 2.88 3.06 5.92a42.6 42.6 0 0 1 1.73 12.79 1 1 0 0 1-1 1h-3.5v9a1 1 0 1 1-2 0v-28a1 1 0 0 1 .62-.92Zm1.38 17.92h2.5a39.62 39.62 0 0 0-1.64-11.19 22.4 22.4 0 0 0-.86-2.3v13.49Zm-14-18a1 1 0 0 1 1 1v28a1 1 0 1 1-2 0v-28a1 1 0 0 1 1-1Z" fill="#fff"></path><path fill-rule="evenodd" clip-rule="evenodd" d="M1.5 0a1 1 0 0 1 1 1v5.5c0 .56.2 1.32.7 1.92.48.56 1.31 1.08 2.8 1.08a1 1 0 1 1 0 2 5.41 5.41 0 0 1-4.33-1.8 5.07 5.07 0 0 1-1.17-3.2v-5.5a1 1 0 0 1 1-1Z" fill="#fff"></path><path fill-rule="evenodd" clip-rule="evenodd" d="M10.5 0a1 1 0 0 0-1 1v5.5c0 .56-.2 1.32-.7 1.92-.48.56-1.31 1.08-2.8 1.08a1 1 0 0 0 0 2 5.4 5.4 0 0 0 4.33-1.8 5.07 5.07 0 0 0 1.17-3.2v-5.5a1 1 0 0 0-1-1Z" fill="#fff"></path></svg><svg viewBox="0 0 40 40" fill="none" id="thumb"><rect x="1" y="1" width="38" height="38" rx="19" fill="#fff"></rect><rect x="1" y="1" width="38" height="38" rx="19" stroke="#666" stroke-width="2"></rect><path d="m16 11-8 9 8 9v-18Zm16 9-8-9v18l8-9Z" fill="#666"></path></svg></svg>